# xmcd CD database file
#
# Track frame offsets:
#	150
#	18449
#	33757
#	50485
#	82969
#	113064
#	136681
#	161661
#	182482
#	214284
#
# Disc length: 3199 seconds
#
# Revision: 0
# Processed by: cddbd v1.5.2PL0 Copyright (c) Steve Scherf et al.
# Submitted via: CDex 1.86
#
DISCID=770c7d0a
DTITLE=Anthony "Big A" Sherrod with The Cornlickers - Right On Time
DYEAR=2017
DGENRE=Blues
TTITLE0=Rumblin' Stumblin'
TTITLE1=Find Me Another Woman
TTITLE2=Right On Time Baby
TTITLE3=Cold Feeling
TTITLE4=Shuffle In Big A
TTITLE5=Get Your Money
TTITLE6=Tried And Tried
TTITLE7=Train
TTITLE8=Someday
TTITLE9=Talk To Your Daughter
EXTD=YEAR: 2017
EXTT0=
EXTT1=
EXTT2=
EXTT3=
EXTT4=
EXTT5=
EXTT6=
EXTT7=
EXTT8=
EXTT9=
PLAYORDER=
